<?xml version="1.0" encoding="UTF-8" standalone="no"?>
<!-- Creator: CorelDRAW X8 -->

<svg
   xmlns:dc="http://purl.org/dc/elements/1.1/"
   xmlns:cc="http://creativecommons.org/ns#"
   xmlns:rdf="http://www.w3.org/1999/02/22-rdf-syntax-ns#"
   xmlns:svg="http://www.w3.org/2000/svg"
   xmlns="http://www.w3.org/2000/svg"
   xmlns:sodipodi="http://sodipodi.sourceforge.net/DTD/sodipodi-0.dtd"
   xmlns:inkscape="http://www.inkscape.org/namespaces/inkscape"
   xml:space="preserve"
   width="98.000008mm"
   height="59.230003mm"
   version="1.1"
   viewBox="0 0 9800.0007 5923.0004"
   id="svg2"
   inkscape:version="0.91 r13725"
   sodipodi:docname="табло.svg"
   style="clip-rule:evenodd;fill-rule:evenodd;image-rendering:optimizeQuality;shape-rendering:geometricPrecision;text-rendering:geometricPrecision"><metadata
     id="metadata249"><rdf:RDF><cc:Work
         rdf:about=""><dc:format>image/svg+xml</dc:format><dc:type
           rdf:resource="http://purl.org/dc/dcmitype/StillImage" /><dc:title></dc:title></cc:Work></rdf:RDF></metadata><defs
     id="defs247" /><sodipodi:namedview
     pagecolor="#ffffff"
     bordercolor="#666666"
     borderopacity="1"
     objecttolerance="10"
     gridtolerance="10"
     guidetolerance="10"
     inkscape:pageopacity="0"
     inkscape:pageshadow="2"
     inkscape:window-width="1252"
     inkscape:window-height="755"
     id="namedview245"
     showgrid="false"
     fit-margin-top="0"
     fit-margin-left="0"
     fit-margin-right="0"
     fit-margin-bottom="0"
     inkscape:document-units="mm"
     inkscape:zoom="0.59"
     inkscape:cx="-332.2558"
     inkscape:cy="-229.99556"
     inkscape:window-x="28"
     inkscape:window-y="1"
     inkscape:window-maximized="1"
     inkscape:current-layer="svg2" /><g
     id="Слой_x0020_1"
     transform="translate(-51427,-47036)"><metadata
       id="CorelCorpID_0Corel-Layer" /><path
       d="m 51427,47036 0,5923 9800,0 0,-5923 -9800,0 z m 4302,73 c 27,0 49,22 49,49 0,27 -22,49 -49,49 -27,0 -49,-22 -49,-49 0,-27 22,-49 49,-49 z m -2540,0 c 27,0 49,22 49,49 0,27 -22,49 -49,49 -27,0 -48,-22 -48,-49 0,-27 21,-49 48,-49 z m -254,0 c 27,0 49,22 49,49 0,27 -22,49 -49,49 -27,0 -48,-22 -48,-49 0,-27 21,-49 48,-49 z m -1277,58 c 56,0 101,45 101,101 0,56 -45,101 -101,101 -55,0 -100,-45 -100,-101 0,-56 45,-101 100,-101 z m 0,5661 c -55,0 -100,-45 -100,-100 0,-56 45,-101 100,-101 56,0 101,45 101,101 0,55 -45,100 -101,100 z m 769,-5621 c -64,0 -64,-98 0,-98 27,0 49,22 49,49 0,27 -22,49 -49,49 z m 206,-49 c 0,-27 21,-49 48,-49 27,0 49,22 49,49 0,27 -22,49 -49,49 -27,0 -48,-22 -48,-49 z m 810,49 c -27,0 -48,-22 -48,-49 0,-27 21,-49 48,-49 27,0 49,22 49,49 0,27 -22,49 -49,49 z m 254,0 c -27,0 -48,-22 -48,-49 0,-27 21,-49 48,-49 27,0 49,22 49,49 0,27 -22,49 -49,49 z m 254,0 c -27,0 -48,-22 -48,-49 0,-27 21,-49 48,-49 27,0 49,22 49,49 0,27 -22,49 -49,49 z m 254,0 c -27,0 -48,-22 -48,-49 0,-27 21,-49 48,-49 27,0 49,22 49,49 0,27 -22,49 -49,49 z m 254,0 c -27,0 -49,-22 -49,-49 0,-27 22,-49 49,-49 27,0 49,22 49,49 0,27 -22,49 -49,49 z m 254,0 c -27,0 -49,-22 -49,-49 0,-27 22,-49 49,-49 27,0 49,22 49,49 0,27 -22,49 -49,49 z m 254,0 c -27,0 -48,-22 -48,-49 0,-27 21,-49 48,-49 27,0 49,22 49,49 0,27 -22,49 -49,49 z m 254,0 c -27,0 -48,-22 -48,-49 0,-27 21,-49 48,-49 27,0 49,22 49,49 0,27 -22,49 -49,49 z m 205,-49 c 0,-27 22,-49 49,-49 27,0 49,22 49,49 0,27 -22,49 -49,49 -27,0 -49,-22 -49,-49 z m 557,49 c -27,0 -49,-22 -49,-49 0,-27 22,-49 49,-49 27,0 49,22 49,49 0,27 -22,49 -49,49 z m 254,0 c -27,0 -48,-22 -48,-49 0,-27 21,-49 48,-49 27,0 49,22 49,49 0,27 -22,49 -49,49 z m 4759,-40 c 56,0 101,45 101,101 0,55 -45,101 -101,101 -56,0 -101,-46 -101,-101 0,-56 45,-101 101,-101 z m 0,5661 c -56,0 -101,-45 -101,-100 0,-56 45,-101 101,-101 56,0 101,45 101,101 0,55 -45,100 -101,100 z"
       id="path6"
       inkscape:connector-curvature="0"
       style="fill:#1f7a34" /><path
       d="m 51483,47268 c 0,97 79,175 175,175 97,0 175,-78 175,-175 0,-97 -78,-175 -175,-175 -96,0 -175,78 -175,175 z m 75,0 c 0,-56 45,-101 100,-101 56,0 101,45 101,101 0,56 -45,101 -101,101 -55,0 -100,-45 -100,-101 z"
       id="path8"
       inkscape:connector-curvature="0"
       style="fill:#9a916c" /><path
       d="m 61171,52729 c 0,-97 -78,-175 -175,-175 -97,0 -175,78 -175,175 0,96 78,175 175,175 97,0 175,-78 175,-175 z m -74,0 c 0,55 -45,100 -101,100 -56,0 -101,-45 -101,-100 0,-56 45,-101 101,-101 56,0 101,45 101,101 z"
       id="path10"
       inkscape:connector-curvature="0"
       style="fill:#9a916c" /><path
       d="m 51483,52729 c 0,96 79,175 175,175 97,0 175,-79 175,-175 0,-97 -78,-175 -175,-175 -96,0 -175,78 -175,175 z m 75,0 c 0,-56 45,-101 100,-101 56,0 101,45 101,101 0,55 -45,100 -101,100 -55,0 -100,-45 -100,-100 z"
       id="path12"
       inkscape:connector-curvature="0"
       style="fill:#9a916c" /><path
       d="m 60976,51011 c -26,0 -47,-22 -47,-47 l 0,-1915 c 0,-26 21,-47 47,-47 l 2,0 0,-844 0,-24 -25,0 -72,-73 0,-25 -25,0 -9306,-9 -26,0 0,25 -72,73 -25,0 0,24 0,844 2,0 c 26,0 48,21 48,47 l 0,1915 c 0,26 -22,47 -48,47 l -2,0 0,707 0,25 25,0 72,72 0,25 26,0 9306,9 25,0 0,-25 72,-72 25,0 0,-25 0,-707 -2,0 z"
       id="path14"
       inkscape:connector-curvature="0"
       style="fill:#303030" /><path
       d="m 60867,48206 c 0,-26 -29,-48 -65,-48 l -9199,0 c -35,0 -64,22 -64,48 l 0,26 c 0,25 29,47 64,47 l 9199,0 c 36,0 65,-22 65,-47 l 0,-26 0,0 z"
       id="path16"
       inkscape:connector-curvature="0"
       style="fill:#1a1a1a" /><path
       d="m 60833,48248 c 0,-17 -21,-31 -46,-31 l -9168,0 c -26,0 -46,14 -46,31 0,17 20,31 46,31 l 9168,0 c 25,0 46,-14 46,-31 z"
       id="path18"
       inkscape:connector-curvature="0"
       style="fill:#424242" /><line
       x1="51452"
       y1="48125"
       x2="51527"
       y2="48050"
       id="line20"
       style="fill:none;fill-opacity:0.2;stroke:#f2f2f2;stroke-width:8.31999969;stroke-linecap:round;stroke-opacity:0.2" /><path
       d="m 60821,47268 c 0,96 78,175 175,175 97,0 175,-79 175,-175 0,-97 -78,-175 -175,-175 -97,0 -175,78 -175,175 z m 74,0 c 0,-56 45,-101 101,-101 56,0 101,45 101,101 0,55 -45,101 -101,101 -56,0 -101,-46 -101,-101 z"
       id="path22"
       inkscape:connector-curvature="0"
       style="fill:#9a916c" /><path
       d="m 52342,47036 0,167 c 0,47 38,85 85,85 47,0 85,-38 85,-85 l 0,-167 -170,0 z m 85,171 c -27,0 -48,-22 -48,-49 0,-27 21,-49 48,-49 27,0 49,22 49,49 0,27 -22,49 -49,49 z"
       id="path24"
       inkscape:connector-curvature="0"
       style="fill:#9a916c" /><path
       d="m 52596,47036 0,167 c 0,47 38,85 85,85 47,0 85,-38 85,-85 l 0,-167 -170,0 z m 85,171 c -27,0 -48,-22 -48,-49 0,-27 21,-49 48,-49 27,0 49,22 49,49 0,27 -22,49 -49,49 z"
       id="path26"
       inkscape:connector-curvature="0"
       style="fill:#9a916c" /><path
       d="m 52850,47036 0,167 c 0,47 38,85 85,85 47,0 85,-38 85,-85 l 0,-167 -170,0 z m 85,171 c -27,0 -48,-22 -48,-49 0,-27 21,-49 48,-49 27,0 49,22 49,49 0,27 -22,49 -49,49 z"
       id="path28"
       inkscape:connector-curvature="0"
       style="fill:#9a916c" /><path
       d="m 53104,47036 0,167 c 0,47 38,85 85,85 47,0 85,-38 85,-85 l 0,-167 -170,0 z m 85,171 c -27,0 -48,-22 -48,-49 0,-27 21,-49 48,-49 27,0 49,22 49,49 0,27 -22,49 -49,49 z"
       id="path30"
       inkscape:connector-curvature="0"
       style="fill:#9a916c" /><path
       d="m 53358,47036 0,167 c 0,47 38,85 85,85 47,0 85,-38 85,-85 l 0,-167 -170,0 z m 85,171 c -27,0 -48,-22 -48,-49 0,-27 21,-49 48,-49 27,0 49,22 49,49 0,27 -22,49 -49,49 z"
       id="path32"
       inkscape:connector-curvature="0"
       style="fill:#9a916c" /><path
       d="m 53612,47036 0,167 c 0,47 38,85 85,85 47,0 85,-38 85,-85 l 0,-167 -170,0 z m 85,171 c -27,0 -48,-22 -48,-49 0,-27 21,-49 48,-49 27,0 49,22 49,49 0,27 -22,49 -49,49 z"
       id="path34"
       inkscape:connector-curvature="0"
       style="fill:#9a916c" /><path
       d="m 53866,47036 0,167 c 0,47 38,85 85,85 47,0 85,-38 85,-85 l 0,-167 -170,0 z m 85,171 c -27,0 -48,-22 -48,-49 0,-27 21,-49 48,-49 27,0 49,22 49,49 0,27 -22,49 -49,49 z"
       id="path36"
       inkscape:connector-curvature="0"
       style="fill:#9a916c" /><path
       d="m 54120,47036 0,167 c 0,47 38,85 85,85 47,0 85,-38 85,-85 l 0,-167 -170,0 z m 85,171 c -27,0 -48,-22 -48,-49 0,-27 21,-49 48,-49 27,0 49,22 49,49 0,27 -22,49 -49,49 z"
       id="path38"
       inkscape:connector-curvature="0"
       style="fill:#9a916c" /><path
       d="m 54374,47036 0,167 c 0,47 38,85 85,85 47,0 85,-38 85,-85 l 0,-167 -170,0 z m 85,171 c -27,0 -48,-22 -48,-49 0,-27 21,-49 48,-49 27,0 49,22 49,49 0,27 -22,49 -49,49 z"
       id="path40"
       inkscape:connector-curvature="0"
       style="fill:#9a916c" /><path
       d="m 54628,47036 0,167 c 0,47 38,85 85,85 47,0 85,-38 85,-85 l 0,-167 -170,0 z m 85,171 c -27,0 -48,-22 -48,-49 0,-27 21,-49 48,-49 27,0 49,22 49,49 0,27 -22,49 -49,49 z"
       id="path42"
       inkscape:connector-curvature="0"
       style="fill:#9a916c" /><path
       d="m 54882,47036 0,167 c 0,47 38,85 85,85 47,0 85,-38 85,-85 l 0,-167 -170,0 z m 85,171 c -27,0 -48,-22 -48,-49 0,-27 21,-49 48,-49 27,0 49,22 49,49 0,27 -22,49 -49,49 z"
       id="path44"
       inkscape:connector-curvature="0"
       style="fill:#9a916c" /><path
       d="m 55136,47036 0,167 c 0,47 38,85 85,85 47,0 85,-38 85,-85 l 0,-167 -170,0 z m 85,171 c -27,0 -48,-22 -48,-49 0,-27 21,-49 48,-49 27,0 49,22 49,49 0,27 -22,49 -49,49 z"
       id="path46"
       inkscape:connector-curvature="0"
       style="fill:#9a916c" /><path
       d="m 55390,47036 0,167 c 0,47 38,85 85,85 47,0 85,-38 85,-85 l 0,-167 -170,0 z m 85,171 c -27,0 -48,-22 -48,-49 0,-27 21,-49 48,-49 27,0 49,22 49,49 0,27 -22,49 -49,49 z"
       id="path48"
       inkscape:connector-curvature="0"
       style="fill:#9a916c" /><path
       d="m 55644,47036 0,167 c 0,47 38,85 85,85 47,0 85,-38 85,-85 l 0,-167 -170,0 z m 85,171 c -27,0 -48,-22 -48,-49 0,-27 21,-49 48,-49 27,0 49,22 49,49 0,27 -22,49 -49,49 z"
       id="path50"
       inkscape:connector-curvature="0"
       style="fill:#9a916c" /><path
       d="m 55898,47036 0,167 c 0,47 38,85 85,85 47,0 85,-38 85,-85 l 0,-167 -170,0 z m 85,171 c -27,0 -48,-22 -48,-49 0,-27 21,-49 48,-49 27,0 49,22 49,49 0,27 -22,49 -49,49 z"
       id="path52"
       inkscape:connector-curvature="0"
       style="fill:#9a916c" /><path
       d="m 56152,47036 0,167 c 0,47 38,85 85,85 47,0 85,-38 85,-85 l 0,-167 -170,0 z m 85,171 c -27,0 -48,-22 -48,-49 0,-27 21,-49 48,-49 27,0 49,22 49,49 0,27 -22,49 -49,49 z"
       id="path54"
       inkscape:connector-curvature="0"
       style="fill:#9a916c" /><rect
       x="51521"
       y="48033"
       width="9346.6797"
       height="9.4099998"
       id="rect56"
       style="fill:#606060" /><circle
       id="connector0pin"
       cx="52427"
       cy="47158"
       r="49"
       style="fill:#000000" /><circle
       id="connector1pin"
       cx="52681"
       cy="47158"
       r="49"
       style="fill:#000000" /><circle
       id="connector2pin"
       cx="52935"
       cy="47158"
       r="49"
       style="fill:#000000" /><circle
       id="connector3pin"
       cx="53189"
       cy="47158"
       r="49"
       style="fill:#000000" /><circle
       id="connector4pin"
       cx="53443"
       cy="47158"
       r="49"
       style="fill:#000000" /><circle
       id="connector5pin"
       cx="53697"
       cy="47158"
       r="49"
       style="fill:#000000" /><path
       id="connector6pin"
       d="m 53903,47158 c 0,-27 21,-49 48,-49 27,0 49,22 49,49 0,27 -22,49 -49,49 -27,0 -48,-22 -48,-49 z"
       inkscape:connector-curvature="0"
       style="fill:#000000" /><circle
       id="connector7pin"
       cx="54205"
       cy="47158"
       r="49"
       style="fill:#000000" /><circle
       id="connector8pin"
       cx="54459"
       cy="47158"
       r="49"
       style="fill:#000000" /><circle
       id="connector9pin"
       cx="54713"
       cy="47158"
       r="49"
       style="fill:#000000" /><circle
       id="connector10pin"
       cx="54967"
       cy="47158"
       r="49"
       style="fill:#000000" /><circle
       id="connector11pin"
       cx="55221"
       cy="47158"
       r="49"
       style="fill:#000000" /><circle
       id="connector12pin"
       cx="55475"
       cy="47158"
       r="49"
       style="fill:#000000" /><circle
       id="connector13pin"
       cx="55729"
       cy="47158"
       r="49"
       style="fill:#000000" /><circle
       id="connector14pin"
       cx="55983"
       cy="47158"
       r="49"
       style="fill:#000000" /><circle
       id="connector15pin"
       cx="56237"
       cy="47158"
       r="49"
       style="fill:#000000" /><path
       d="m 59984,51095 c 0,77 -63,141 -141,141 l -7317,0 c -78,0 -142,-64 -142,-141 l 0,-2317 c 0,-78 64,-142 142,-142 l 7317,0 c 78,0 141,64 141,142 l 0,2317 z"
       id="path74"
       inkscape:connector-curvature="0"
       style="fill:#87ad34" /><path
       d="m 60021,48777 -915,1438 c 0,-1 0,-1 0,-1 l 915,-1436 c 0,-1 0,-1 0,-1 z m -7495,-141 c -78,0 -142,64 -142,142 l 0,2317 c 0,77 64,141 142,141 l 82,0 c -78,0 -142,-64 -142,-141 l 0,-2270 c 0,-78 64,-142 142,-142 l 7376,0 c -26,-28 -63,-47 -104,-47 l -7354,0 z"
       id="path76"
       inkscape:connector-curvature="0"
       style="fill:#22420d;fill-opacity:0.2" /><path
       d="m 59984,51095 c 0,77 -63,141 -141,141 l -7317,0 c -78,0 -142,-64 -142,-141 l 0,-2317 c 0,-78 64,-142 142,-142 l 7317,0 c 78,0 141,64 141,142 l 0,2317 z"
       id="path78"
       inkscape:connector-curvature="0"
       style="fill:none;fill-opacity:0.4;stroke:#1a1a1a;stroke-width:49.91999817;stroke-opacity:0.4" /><g
       id="_1060820756128"><polygon
         points="52542,49339 52542,49922 52885,49922 52885,49339 "
         id="polygon81"
         style="fill:#1a1a1a;fill-opacity:0.10196102" /><polygon
         points="52910,49339 52910,49922 53252,49922 53252,49339 "
         id="polygon83"
         style="fill:#1a1a1a;fill-opacity:0.10196102" /><polygon
         points="53277,49339 53277,49922 53620,49922 53620,49339 "
         id="polygon85"
         style="fill:#1a1a1a;fill-opacity:0.10196102" /><polygon
         points="53644,49339 53644,49922 53987,49922 53987,49339 "
         id="polygon87"
         style="fill:#1a1a1a;fill-opacity:0.10196102" /><polygon
         points="54012,49339 54012,49922 54355,49922 54355,49339 "
         id="polygon89"
         style="fill:#1a1a1a;fill-opacity:0.10196102" /><polygon
         points="54379,49339 54379,49922 54722,49922 54722,49339 "
         id="polygon91"
         style="fill:#1a1a1a;fill-opacity:0.10196102" /><polygon
         points="54747,49339 54747,49922 55090,49922 55090,49339 "
         id="polygon93"
         style="fill:#1a1a1a;fill-opacity:0.10196102" /><polygon
         points="55114,49339 55114,49922 55457,49922 55457,49339 "
         id="polygon95"
         style="fill:#1a1a1a;fill-opacity:0.10196102" /><polygon
         points="55482,49339 55482,49922 55825,49922 55825,49339 "
         id="polygon97"
         style="fill:#1a1a1a;fill-opacity:0.10196102" /><polygon
         points="55849,49339 55849,49922 56192,49922 56192,49339 "
         id="polygon99"
         style="fill:#1a1a1a;fill-opacity:0.10196102" /><polygon
         points="56217,49339 56217,49922 56559,49922 56559,49339 "
         id="polygon101"
         style="fill:#1a1a1a;fill-opacity:0.10196102" /><polygon
         points="56584,49339 56584,49922 56927,49922 56927,49339 "
         id="polygon103"
         style="fill:#1a1a1a;fill-opacity:0.10196102" /><polygon
         points="56951,49339 56951,49922 57294,49922 57294,49339 "
         id="polygon105"
         style="fill:#1a1a1a;fill-opacity:0.10196102" /><polygon
         points="57319,49339 57319,49922 57662,49922 57662,49339 "
         id="polygon107"
         style="fill:#1a1a1a;fill-opacity:0.10196102" /><polygon
         points="57686,49339 57686,49922 58029,49922 58029,49339 "
         id="polygon109"
         style="fill:#1a1a1a;fill-opacity:0.10196102" /><polygon
         points="58054,49339 58054,49922 58397,49922 58397,49339 "
         id="polygon111"
         style="fill:#1a1a1a;fill-opacity:0.10196102" /><polygon
         points="52542,48732 52542,49314 52885,49314 52885,48732 "
         id="polygon113"
         style="fill:#1a1a1a;fill-opacity:0.10196102" /><polygon
         points="52910,48732 52910,49314 53252,49314 53252,48732 "
         id="polygon115"
         style="fill:#1a1a1a;fill-opacity:0.10196102" /><polygon
         points="53277,48732 53277,49314 53620,49314 53620,48732 "
         id="polygon117"
         style="fill:#1a1a1a;fill-opacity:0.10196102" /><polygon
         points="53644,48732 53644,49314 53987,49314 53987,48732 "
         id="polygon119"
         style="fill:#1a1a1a;fill-opacity:0.10196102" /><polygon
         points="54012,48732 54012,49314 54355,49314 54355,48732 "
         id="polygon121"
         style="fill:#1a1a1a;fill-opacity:0.10196102" /><polygon
         points="54379,48732 54379,49314 54722,49314 54722,48732 "
         id="polygon123"
         style="fill:#1a1a1a;fill-opacity:0.10196102" /><polygon
         points="54747,48732 54747,49314 55090,49314 55090,48732 "
         id="polygon125"
         style="fill:#1a1a1a;fill-opacity:0.10196102" /><polygon
         points="55114,48732 55114,49314 55457,49314 55457,48732 "
         id="polygon127"
         style="fill:#1a1a1a;fill-opacity:0.10196102" /><polygon
         points="55482,48732 55482,49314 55825,49314 55825,48732 "
         id="polygon129"
         style="fill:#1a1a1a;fill-opacity:0.10196102" /><polygon
         points="55849,48732 55849,49314 56192,49314 56192,48732 "
         id="polygon131"
         style="fill:#1a1a1a;fill-opacity:0.10196102" /><polygon
         points="56217,48732 56217,49314 56559,49314 56559,48732 "
         id="polygon133"
         style="fill:#1a1a1a;fill-opacity:0.10196102" /><polygon
         points="56584,48732 56584,49314 56927,49314 56927,48732 "
         id="polygon135"
         style="fill:#1a1a1a;fill-opacity:0.10196102" /><polygon
         points="56951,48732 56951,49314 57294,49314 57294,48732 "
         id="polygon137"
         style="fill:#1a1a1a;fill-opacity:0.10196102" /><polygon
         points="57319,48732 57319,49314 57662,49314 57662,48732 "
         id="polygon139"
         style="fill:#1a1a1a;fill-opacity:0.10196102" /><polygon
         points="57686,48732 57686,49314 58029,49314 58029,48732 "
         id="polygon141"
         style="fill:#1a1a1a;fill-opacity:0.10196102" /><polygon
         points="58054,48732 58054,49314 58397,49314 58397,48732 "
         id="polygon143"
         style="fill:#1a1a1a;fill-opacity:0.10196102" /><polygon
         points="52542,50554 52542,51137 52885,51137 52885,50554 "
         id="polygon145"
         style="fill:#1a1a1a;fill-opacity:0.10196102" /><polygon
         points="52910,50554 52910,51137 53252,51137 53252,50554 "
         id="polygon147"
         style="fill:#1a1a1a;fill-opacity:0.10196102" /><polygon
         points="53277,50554 53277,51137 53620,51137 53620,50554 "
         id="polygon149"
         style="fill:#1a1a1a;fill-opacity:0.10196102" /><polygon
         points="53644,50554 53644,51137 53987,51137 53987,50554 "
         id="polygon151"
         style="fill:#1a1a1a;fill-opacity:0.10196102" /><polygon
         points="54012,50554 54012,51137 54355,51137 54355,50554 "
         id="polygon153"
         style="fill:#1a1a1a;fill-opacity:0.10196102" /><polygon
         points="54379,50554 54379,51137 54722,51137 54722,50554 "
         id="polygon155"
         style="fill:#1a1a1a;fill-opacity:0.10196102" /><polygon
         points="54747,50554 54747,51137 55090,51137 55090,50554 "
         id="polygon157"
         style="fill:#1a1a1a;fill-opacity:0.10196102" /><polygon
         points="55114,50554 55114,51137 55457,51137 55457,50554 "
         id="polygon159"
         style="fill:#1a1a1a;fill-opacity:0.10196102" /><polygon
         points="55482,50554 55482,51137 55825,51137 55825,50554 "
         id="polygon161"
         style="fill:#1a1a1a;fill-opacity:0.10196102" /><polygon
         points="55849,50554 55849,51137 56192,51137 56192,50554 "
         id="polygon163"
         style="fill:#1a1a1a;fill-opacity:0.10196102" /><polygon
         points="56217,50554 56217,51137 56559,51137 56559,50554 "
         id="polygon165"
         style="fill:#1a1a1a;fill-opacity:0.10196102" /><polygon
         points="56584,50554 56584,51137 56927,51137 56927,50554 "
         id="polygon167"
         style="fill:#1a1a1a;fill-opacity:0.10196102" /><polygon
         points="56951,50554 56951,51137 57294,51137 57294,50554 "
         id="polygon169"
         style="fill:#1a1a1a;fill-opacity:0.10196102" /><polygon
         points="57319,50554 57319,51137 57662,51137 57662,50554 "
         id="polygon171"
         style="fill:#1a1a1a;fill-opacity:0.10196102" /><polygon
         points="57686,50554 57686,51137 58029,51137 58029,50554 "
         id="polygon173"
         style="fill:#1a1a1a;fill-opacity:0.10196102" /><polygon
         points="58054,50554 58054,51137 58397,51137 58397,50554 "
         id="polygon175"
         style="fill:#1a1a1a;fill-opacity:0.10196102" /><polygon
         points="52542,49946 52542,50529 52885,50529 52885,49946 "
         id="polygon177"
         style="fill:#1a1a1a;fill-opacity:0.10196102" /><polygon
         points="52910,49946 52910,50529 53252,50529 53252,49946 "
         id="polygon179"
         style="fill:#1a1a1a;fill-opacity:0.10196102" /><polygon
         points="53277,49946 53277,50529 53620,50529 53620,49946 "
         id="polygon181"
         style="fill:#1a1a1a;fill-opacity:0.10196102" /><polygon
         points="53644,49946 53644,50529 53987,50529 53987,49946 "
         id="polygon183"
         style="fill:#1a1a1a;fill-opacity:0.10196102" /><polygon
         points="54012,49946 54012,50529 54355,50529 54355,49946 "
         id="polygon185"
         style="fill:#1a1a1a;fill-opacity:0.10196102" /><polygon
         points="54379,49946 54379,50529 54722,50529 54722,49946 "
         id="polygon187"
         style="fill:#1a1a1a;fill-opacity:0.10196102" /><polygon
         points="54747,49946 54747,50529 55090,50529 55090,49946 "
         id="polygon189"
         style="fill:#1a1a1a;fill-opacity:0.10196102" /><polygon
         points="55114,49946 55114,50529 55457,50529 55457,49946 "
         id="polygon191"
         style="fill:#1a1a1a;fill-opacity:0.10196102" /><polygon
         points="55482,49946 55482,50529 55825,50529 55825,49946 "
         id="polygon193"
         style="fill:#1a1a1a;fill-opacity:0.10196102" /><polygon
         points="55849,49946 55849,50529 56192,50529 56192,49946 "
         id="polygon195"
         style="fill:#1a1a1a;fill-opacity:0.10196102" /><polygon
         points="56217,49946 56217,50529 56559,50529 56559,49946 "
         id="polygon197"
         style="fill:#1a1a1a;fill-opacity:0.10196102" /><polygon
         points="56584,49946 56584,50529 56927,50529 56927,49946 "
         id="polygon199"
         style="fill:#1a1a1a;fill-opacity:0.10196102" /><polygon
         points="56951,49946 56951,50529 57294,50529 57294,49946 "
         id="polygon201"
         style="fill:#1a1a1a;fill-opacity:0.10196102" /><polygon
         points="57319,49946 57319,50529 57662,50529 57662,49946 "
         id="polygon203"
         style="fill:#1a1a1a;fill-opacity:0.10196102" /><polygon
         points="57686,49946 57686,50529 58029,50529 58029,49946 "
         id="polygon205"
         style="fill:#1a1a1a;fill-opacity:0.10196102" /><polygon
         points="58054,49946 58054,50529 58397,50529 58397,49946 "
         id="polygon207"
         style="fill:#1a1a1a;fill-opacity:0.10196102" /><polygon
         points="58421,49339 58421,49922 58764,49922 58764,49339 "
         id="polygon209"
         style="fill:#1a1a1a;fill-opacity:0.10196102" /><polygon
         points="58789,49339 58789,49922 59132,49922 59132,49339 "
         id="polygon211"
         style="fill:#1a1a1a;fill-opacity:0.10196102" /><polygon
         points="59156,49339 59156,49922 59499,49922 59499,49339 "
         id="polygon213"
         style="fill:#1a1a1a;fill-opacity:0.10196102" /><polygon
         points="59524,49339 59524,49922 59867,49922 59867,49339 "
         id="polygon215"
         style="fill:#1a1a1a;fill-opacity:0.10196102" /><polygon
         points="58421,48732 58421,49314 58764,49314 58764,48732 "
         id="polygon217"
         style="fill:#1a1a1a;fill-opacity:0.10196102" /><polygon
         points="58789,48732 58789,49314 59132,49314 59132,48732 "
         id="polygon219"
         style="fill:#1a1a1a;fill-opacity:0.10196102" /><polygon
         points="59156,48732 59156,49314 59499,49314 59499,48732 "
         id="polygon221"
         style="fill:#1a1a1a;fill-opacity:0.10196102" /><polygon
         points="59524,48732 59524,49314 59867,49314 59867,48732 "
         id="polygon223"
         style="fill:#1a1a1a;fill-opacity:0.10196102" /><polygon
         points="58421,50554 58421,51137 58764,51137 58764,50554 "
         id="polygon225"
         style="fill:#1a1a1a;fill-opacity:0.10196102" /><polygon
         points="58789,50554 58789,51137 59132,51137 59132,50554 "
         id="polygon227"
         style="fill:#1a1a1a;fill-opacity:0.10196102" /><polygon
         points="59156,50554 59156,51137 59499,51137 59499,50554 "
         id="polygon229"
         style="fill:#1a1a1a;fill-opacity:0.10196102" /><polygon
         points="59524,50554 59524,51137 59867,51137 59867,50554 "
         id="polygon231"
         style="fill:#1a1a1a;fill-opacity:0.10196102" /><polygon
         points="58421,49946 58421,50529 58764,50529 58764,49946 "
         id="polygon233"
         style="fill:#1a1a1a;fill-opacity:0.10196102" /><polygon
         points="58789,49946 58789,50529 59132,50529 59132,49946 "
         id="polygon235"
         style="fill:#1a1a1a;fill-opacity:0.10196102" /><polygon
         points="59156,49946 59156,50529 59499,50529 59499,49946 "
         id="polygon237"
         style="fill:#1a1a1a;fill-opacity:0.10196102" /><polygon
         points="59524,49946 59524,50529 59867,50529 59867,49946 "
         id="polygon239"
         style="fill:#1a1a1a;fill-opacity:0.10196102" /></g><path
       d="m 60867,51607 c 0,-26 -29,-47 -65,-47 l -9199,0 c -35,0 -64,21 -64,47 l 0,26 c 0,26 29,47 64,47 l 9199,0 c 36,0 65,-21 65,-47 l 0,-26 0,0 z"
       id="path241"
       inkscape:connector-curvature="0"
       style="fill:#1a1a1a" /><path
       d="m 60833,51649 c 0,-17 -21,-31 -46,-31 l -9168,0 c -26,0 -46,14 -46,31 0,17 20,31 46,31 l 9168,0 c 25,0 46,-14 46,-31 z"
       id="path243"
       inkscape:connector-curvature="0"
       style="fill:#424242" /></g></svg>